# Blender 4.0.2
# www.blender.org
mtllib Pyramid_01.mtl
o Plane
v 0.500000 0.500000 0.000000
v -0.500000 0.500000 -0.000000
v 0.500000 -0.500000 0.000000
v -0.500000 -0.500000 -0.000000
v 0.000000 0.000000 0.500000
vn -0.0000 -0.0000 -1.0000
vn -0.0000 0.7071 0.7071
vn 0.7071 -0.0000 0.7071
vn -0.7071 -0.0000 0.7071
vn -0.0000 -0.7071 0.7071
vt 0.000000 1.000000
vt 1.000000 0.000000
vt 0.000000 0.000000
vt 1.000000 1.000000
s 0
f 3/1/1 2/2/1 1/3/1
f 2/2/2 5/3/2 1/3/2
f 1/3/3 5/3/3 3/1/3
f 4/4/4 5/3/4 2/2/4
f 3/1/5 5/3/5 4/4/5
f 3/1/1 4/4/1 2/2/1
