# Blender 4.0.2
# www.blender.org
mtllib Pyramid.mtl
o Plane
v -1.000000 0.000000 1.000000
v 1.000000 0.000000 1.000000
v -1.000000 0.000000 -1.000000
v 1.000000 0.000000 -1.000000
v 0.000000 1.000000 0.000000
vn -0.0000 1.0000 -0.0000
vn -0.0000 -0.7071 0.7071
vn 0.7071 -0.7071 -0.0000
vn -0.7071 -0.7071 -0.0000
vn -0.0000 -0.7071 -0.7071
vt 1.000000 0.000000
vt 0.000000 1.000000
vt 0.000000 0.000000
vt 1.000000 1.000000
s 0
f 2/1/1 3/2/1 1/3/1
f 3/2/2 4/4/2 5/3/2
f 1/3/3 3/2/3 5/3/3
f 4/4/4 2/1/4 5/3/4
f 2/1/5 1/3/5 5/3/5
f 2/1/1 4/4/1 3/2/1
