# Blender 4.0.2
# www.blender.org
mtllib TestOBJ.mtl
o Plane
v 0.500000 0.500557 0.000000
v -0.500000 0.500557 -0.000000
v 0.500000 -0.499443 0.000000
v -0.500000 -0.499443 -0.000000
v 0.334619 0.500557 0.000000
v -0.334619 0.500557 -0.000000
v 0.057836 0.142783 0.000000
v -0.057836 0.142783 -0.000000
vn -0.0000 -0.0000 1.0000
vt 0.555556 0.000000
vt 1.000000 0.000000
vt 0.000000 1.000000
vt 0.000000 0.000000
vt 0.333333 0.000000
vt 0.444444 0.000000
vt 1.000000 1.000000
vt 0.666667 0.000000
s 0
f 8/1/1 2/2/1 3/3/1
f 3/3/1 1/4/1 5/5/1
f 3/3/1 5/5/1 7/6/1
f 2/2/1 4/7/1 3/3/1
f 8/1/1 6/8/1 2/2/1
f 3/3/1 7/6/1 8/1/1
